HIERARCHY
ROOT Hips
{
	OFFSET 0.00000 0.00000 0.00000
	CHANNELS 6 Xposition Yposition Zposition Zrotation Yrotation Xrotation 
	JOINT LHipJoint
	{
		OFFSET 0 0 0
		CHANNELS 3 Zrotation Yrotation Xrotation
		JOINT LeftUpLeg
		{
			OFFSET 1.30186 -1.90722 0.65024
			CHANNELS 3 Zrotation Yrotation Xrotation
			JOINT LeftLeg
			{
				OFFSET 2.56413 -7.04489 0.00000
				CHANNELS 3 Zrotation Yrotation Xrotation
				JOINT LeftFoot
				{
					OFFSET 2.79321 -7.67428 0.00000
					CHANNELS 3 Zrotation Yrotation Xrotation
					JOINT LeftToeBase
					{
						OFFSET 0.15723 -0.43198 2.08537
						CHANNELS 3 Zrotation Yrotation Xrotation
						End Site
						{
							OFFSET 0.00000 -0.00000 1.07411
						}
					}
				}
			}
		}
	}
	JOINT RHipJoint
	{
		OFFSET 0 0 0
		CHANNELS 3 Zrotation Yrotation Xrotation
		JOINT RightUpLeg
		{
			OFFSET -1.28627 -1.90723 0.65024
			CHANNELS 3 Zrotation Yrotation Xrotation
			JOINT RightLeg
			{
				OFFSET -2.56567 -7.04913 0.00000
				CHANNELS 3 Zrotation Yrotation Xrotation
				JOINT RightFoot
				{
					OFFSET -2.75597 -7.57198 0.00000
					CHANNELS 3 Zrotation Yrotation Xrotation
					JOINT RightToeBase
					{
						OFFSET -0.17500 -0.48081 2.22901
						CHANNELS 3 Zrotation Yrotation Xrotation
						End Site
						{
							OFFSET -0.00000 -0.00000 1.14762
						}
					}
				}
			}
		}
	}
	JOINT LowerBack
	{
		OFFSET 0 0 0
		CHANNELS 3 Zrotation Yrotation Xrotation
		JOINT Spine
		{
			OFFSET -0.04522 2.07467 -0.16566
			CHANNELS 3 Zrotation Yrotation Xrotation
			JOINT Spine1
			{
				OFFSET -0.01178 2.08825 -0.05393
				CHANNELS 3 Zrotation Yrotation Xrotation
				JOINT Neck
				{
					OFFSET 0 0 0
					CHANNELS 3 Zrotation Yrotation Xrotation
					JOINT Neck1
					{
						OFFSET -0.05182 1.80489 0.16014
						CHANNELS 3 Zrotation Yrotation Xrotation
						JOINT Head
						{
							OFFSET 0.14739 1.78840 -0.33342
							CHANNELS 3 Zrotation Yrotation Xrotation
							End Site
							{
								OFFSET 0.04364 1.83899 -0.13460
							}
						}
					}
				}
				JOINT LeftShoulder
				{
					OFFSET 0 0 0
					CHANNELS 3 Zrotation Yrotation Xrotation
					JOINT LeftArm
					{
						OFFSET 3.01264 1.29090 -0.06579
						CHANNELS 3 Zrotation Yrotation Xrotation
						JOINT LeftForeArm
						{
							OFFSET 5.55680 -0.00000 0.00000
							CHANNELS 3 Zrotation Yrotation Xrotation
							JOINT LeftHand
							{
								OFFSET 3.63979 -0.00000 -0.00000
								CHANNELS 3 Zrotation Yrotation Xrotation
								JOINT LeftFingerBase
								{
									OFFSET 0 0 0
									CHANNELS 3 Zrotation Yrotation Xrotation
									JOINT LeftHandIndex1
									{
										OFFSET 0.56942 -0.00000 -0.00000
										CHANNELS 3 Zrotation Yrotation Xrotation
										End Site
										{
											OFFSET 0.45908 -0.00000 -0.00000
										}
									}
								}
								JOINT LThumb
								{
									OFFSET 0 0 0
									CHANNELS 3 Zrotation Yrotation Xrotation
									End Site
									{
										OFFSET 0.46609 -0.00000 0.46609
									}
								}
							}
						}
					}
				}
				JOINT RightShoulder
				{
					OFFSET 0 0 0
					CHANNELS 3 Zrotation Yrotation Xrotation
					JOINT RightArm
					{
						OFFSET -3.15796 1.37283 -0.36748
						CHANNELS 3 Zrotation Yrotation Xrotation
						JOINT RightForeArm
						{
							OFFSET -5.34339 -0.00000 0.00000
							CHANNELS 3 Zrotation Yrotation Xrotation
							JOINT RightHand
							{
								OFFSET -3.65101 -0.00000 -0.00000
								CHANNELS 3 Zrotation Yrotation Xrotation
								JOINT RightFingerBase
								{
									OFFSET 0 0 0
									CHANNELS 3 Zrotation Yrotation Xrotation
									JOINT RightHandIndex1
									{
										OFFSET -0.69425 -0.00000 -0.00000
										CHANNELS 3 Zrotation Yrotation Xrotation
										End Site
										{
											OFFSET -0.55972 -0.00000 -0.00000
										}
									}
								}
								JOINT RThumb
								{
									OFFSET 0 0 0
									CHANNELS 3 Zrotation Yrotation Xrotation
									End Site
									{
										OFFSET -0.56827 -0.00000 0.56827
									}
								}
							}
						}
					}
				}
			}
		}
	}
}
MOTION
Frames: 15
Frame Time: 0.133333
0.00 0.00 0.00 0 0 0 0 0 0 -21 0 0 0 0 0 0 0 0 0 0 0 0 0 0 21 0 0 0 0 0 0 0 0 0 0 0 0 0 0 0 0 0 0 0 0 0 0 -16 0 0 21 0 0 11 0 0 0 -8 0 0 0 0 0 0 0 0 0 0 0 0 0 0 0 0 0 0 0 0 8 0 0 0 0 0 0 0 0 0 0 0 0 0 0 0 0 0
0.00 0.00 0.00 -180.4260 -1.2846 -175.7410 0.0000 0.0000 0.0000 -22.2152 -4.1084 11.2918 0.2700 3.3424 9.2335 0.5196 -2.0493 -13.0652 1.1205 -6.7241 -18.9005 0.0000 0.0000 0.0000 3.0926 20.4488 -25.0027 -0.7694 -5.6009 15.6308 0.7530 -16.3332 -12.6438 -0.0066 0.5250 -1.4427 -5.7770 -0.0346 -2.7529 -2.1432 -0.0517 -1.4343 1.0319 -0.0683 0.0639 -2.4850 -2.0299 -14.4707 -2.0239 -2.0664 15.7964 -0.4777 -1.4115 7.2385 0.0000 -0.0000 0.0000 -57.5444 -59.3194 43.2755 14.8465 -23.9319 -3.1634 -0.0000 -0.0000 3.0635 8.1004 12.0125 1.6967 -7.1250 0.0000 -0.0000 -16.9445 41.4879 1.5165 0.0000 -0.0000 0.0000 14.0067 51.8229 -20.9470 -15.4972 24.8342 -3.4321 0.0000 0.0000 9.9182 3.2404 34.7820 1.8498 7.1250 -0.0000 -0.0000 19.5088 3.1324 21.8226
0.00 0.00 0.00 -185.6160 -12.7451 -174.0910 0.0000 0.0000 0.0000 -19.4430 -1.4667 17.8441 0.2420 3.1660 8.7411 -0.2257 -8.8058 0.3684 1.4003 -7.4856 -21.1622 0.0000 0.0000 0.0000 5.1593 13.8466 -24.0050 -1.2428 -7.0689 19.9195 1.4499 -21.2374 -13.1384 -0.3948 -4.0345 11.1738 -6.5932 0.6780 -4.2439 -2.4408 1.1083 -0.6116 1.2371 0.4575 1.6677 -2.4935 -1.8407 -14.3556 -4.1825 -1.4669 16.1420 -1.1239 -1.3558 7.3203 0.0000 -0.0000 0.0000 -60.8761 -64.3306 48.7630 15.2257 -24.4596 -3.3189 -0.0000 -0.0000 1.8118 10.6103 14.0053 2.5958 -7.1250 0.0000 -0.0000 -15.3426 43.6722 0.5156 0.0000 -0.0000 0.0000 15.2456 51.4438 -18.3227 -15.3618 24.6478 -3.3754 0.0000 0.0000 10.4722 3.1577 34.9059 1.8082 7.1250 -0.0000 -0.0000 19.4658 3.2546 21.8086
0.00 0.00 0.00 -184.1680 -14.5293 -175.6700 0.0000 0.0000 0.0000 -14.7032 -1.4591 13.3909 1.3788 7.4305 20.9971 0.1887 -6.7849 13.3410 0.6270 -5.0667 -14.0990 0.0000 0.0000 0.0000 9.0040 12.8193 -22.2999 -1.9343 -8.7279 24.9479 0.9186 -16.7829 -8.3165 -1.1617 -6.8426 19.2498 -2.1709 1.4744 -0.7439 -1.6536 1.8896 -1.5954 -0.4845 0.9337 -1.2332 -1.6940 -0.6440 -13.1135 -5.9953 0.1915 16.3759 -1.6732 -0.7169 7.2008 0.0000 0.0000 0.0000 -61.8781 -61.1155 49.2173 16.7183 -26.4849 -3.9609 -0.0000 0.0000 -0.2887 13.8568 13.6905 3.3413 -7.1250 0.0000 -0.0000 -12.3746 43.7127 0.3996 0.0000 0.0000 0.0000 21.8018 50.3666 -8.8869 -16.5571 26.2703 -3.8893 0.0000 0.0000 7.9376 0.5452 35.0157 0.3128 7.1250 -0.0000 -0.0000 18.1055 3.5391 20.1986
0.00 0.00 0.00 -184.7900 -20.0252 -175.5980 0.0000 0.0000 0.0000 -11.9297 -7.7592 3.5441 4.0496 12.2261 36.5367 2.0425 -4.0741 28.6996 0.4748 -4.4190 -12.2584 0.0000 0.0000 0.0000 11.1740 11.5958 -18.8578 -2.3415 -9.5438 27.5116 0.7682 -16.8707 -13.9315 -1.4416 -7.5906 21.4774 -2.3877 0.8477 -1.0032 -0.9589 1.1112 -1.0581 0.3613 0.5551 -0.5483 -1.6562 -0.5937 -13.7337 -5.2475 0.1994 17.6309 -1.4560 -0.6806 7.7189 -0.0000 -0.0000 0.0000 -62.6279 -62.8862 52.3922 16.7211 -26.4886 -3.9621 -0.0000 0.0000 -1.0105 11.1937 9.7493 1.9193 -7.1250 0.0000 -0.0000 -13.7219 39.5472 1.8853 -0.0000 -0.0000 0.0000 26.4986 50.7227 -7.9910 -16.0573 25.5983 -3.6707 0.0000 0.0000 10.6383 1.7293 35.4138 1.0023 7.1250 -0.0000 -0.0000 18.7277 3.8295 21.0629
0.00 0.00 0.00 -183.5120 -19.0538 -177.3330 0.0000 0.0000 0.0000 -9.1390 -8.8240 -7.0773 7.3272 15.6014 50.1014 0.3312 -6.4245 15.1018 0.7306 -5.4610 -15.2282 0.0000 0.0000 0.0000 16.3931 8.9070 -12.1167 -1.9933 -8.8521 25.3337 0.3160 -13.6319 -14.9895 -0.9982 -6.3580 17.8268 0.8015 2.2351 -0.4323 -0.1270 2.9717 -0.8683 -0.5800 1.4770 -0.5991 -1.4233 -0.3547 -13.7117 -5.1998 0.4517 19.7724 -1.4884 -0.6368 8.4342 0.0000 0.0000 0.0000 -63.6896 -64.7402 52.9231 17.5142 -27.5307 -4.3223 -0.0000 0.0000 -0.3508 10.0527 12.3820 2.1769 -7.1250 0.0000 -0.0000 -15.3645 42.0313 1.1553 0.0000 0.0000 0.0000 31.7320 51.6516 -6.2854 -13.9822 22.7093 -2.8212 0.0000 0.0000 16.8833 5.0518 36.1480 2.9850 7.1250 -0.0000 -0.0000 20.4310 4.3245 23.4052
0.00 0.00 0.00 -183.0670 -8.7138 -177.3600 0.0000 0.0000 0.0000 -8.3270 -8.4807 -18.7397 5.4166 13.8381 42.5928 -0.0347 -3.3049 1.1246 1.4883 -7.7072 -21.8282 0.0000 0.0000 0.0000 20.5730 9.8383 -4.6351 -1.9317 -8.7224 24.9309 -0.6113 -4.8845 -17.3542 -1.0027 -6.3722 17.8682 2.5250 3.6084 -1.5522 0.0963 4.7564 -1.0488 -1.2301 2.3579 -0.0104 -0.6942 0.2491 -13.1889 -4.1957 0.8460 20.7320 -1.2419 -0.3392 8.6638 -0.0000 0.0000 0.0000 -41.1907 -65.2706 31.4331 17.0249 -26.8906 -4.0986 -0.0000 -0.0000 0.0379 13.6269 14.1258 3.3859 -7.1250 0.0000 -0.0000 -12.6970 44.1220 0.2799 -0.0000 0.0000 0.0000 45.9803 54.7780 9.8194 -15.8702 25.3443 -3.5902 0.0000 0.0000 13.4865 2.9926 35.7651 1.7501 7.1250 -0.0000 -0.0000 19.3821 4.0782 21.9697
0.00 0.00 0.00 -181.6570 0.0864 -176.5170 0.0000 0.0000 0.0000 -5.2510 -16.7071 -20.9139 2.4159 9.6834 27.9573 -0.0252 4.3368 -5.0878 1.3738 -7.4174 -20.9579 0.0000 0.0000 0.0000 22.0016 8.3445 0.6635 -1.3044 -7.2352 20.4141 -0.5305 0.6802 -13.5417 -0.3652 -3.8820 10.7450 3.4291 3.3879 -1.7631 0.8464 4.5351 -1.3123 -0.9671 2.2768 -0.1655 -1.6954 -0.4810 -13.2555 -2.8891 -0.2666 20.5577 -0.7577 -0.8098 8.5981 -0.0000 0.0000 0.0000 -26.0417 -62.2604 12.9148 14.9785 -24.1161 -3.2171 -0.0000 -0.0000 2.1295 14.3512 14.4948 3.6640 -7.1250 0.0000 -0.0000 -12.1483 44.5728 0.1301 -0.0000 0.0000 0.0000 52.8951 54.9841 22.0185 -18.9470 29.3528 -5.0049 0.0000 0.0000 11.0431 2.6805 36.3181 1.5883 7.1250 -0.0000 -0.0000 19.2260 4.6221 21.9427
0.00 0.00 0.00 -178.3730 13.8134 -174.5670 0.0000 0.0000 0.0000 -0.6239 -22.1506 -24.8226 0.7328 5.4692 15.2518 -0.5021 16.6149 -17.8988 0.5891 -4.9139 -13.6633 0.0000 0.0000 0.0000 22.5642 5.8728 10.1735 -0.4109 -4.1151 11.4006 -0.2024 4.8730 -8.1885 -0.0221 -0.9606 2.6404 4.3022 2.6580 -1.9781 1.5728 3.5650 -1.3408 -0.7209 1.8004 -0.1110 -2.9107 -1.6283 -14.6179 -1.9734 -0.6729 19.4093 -0.2307 -0.5579 8.4704 -0.0000 0.0000 0.0000 -11.2843 -54.1782 -2.4426 13.2785 -21.6940 -2.5553 -0.0000 -0.0000 3.7157 14.8743 15.2362 3.9927 -7.1250 0.0000 -0.0000 -11.8809 45.3780 -0.1124 -0.0000 0.0000 0.0000 52.5282 53.1551 30.3808 -21.9217 32.8884 -6.5433 0.0000 0.0000 4.8876 4.0293 34.8224 2.3034 7.1250 -0.0000 -0.0000 19.9169 3.1255 22.3376
0.00 0.00 0.00 -173.8540 26.8455 -174.6150 0.0000 0.0000 0.0000 -6.6029 -11.7361 -24.2181 1.8546 8.5563 24.4171 -1.3835 20.9545 -13.7281 0.0041 0.4147 1.1396 0.0000 0.0000 0.0000 19.2660 4.9757 19.2220 -0.7423 -5.5036 15.3507 0.4340 11.5992 4.9689 -0.0378 1.2550 -3.4506 2.3996 2.0895 -2.4143 1.5983 2.7981 -1.4133 0.3596 1.4181 -0.0631 -1.4485 -0.3067 -14.2821 -2.1453 0.5320 16.5710 -0.3963 0.0481 7.4569 0.0000 -0.0000 0.0000 -6.9713 -49.8303 -7.3809 11.8845 -19.6311 -2.0633 -0.0000 -0.0000 9.2813 14.8317 14.2264 3.7233 -7.1250 0.0000 -0.0000 -11.6438 44.3584 0.1870 0.0000 -0.0000 0.0000 47.5081 51.4406 20.7250 -21.0709 31.9111 -6.0874 0.0000 0.0000 6.2644 5.7660 36.1212 3.4065 7.1250 -0.0000 -0.0000 20.7917 4.2657 23.8583
0.00 0.00 0.00 -175.3660 26.8585 -176.6620 0.0000 0.0000 0.0000 -10.3587 -7.5901 -23.5541 2.4344 9.7177 28.0674 -0.6043 14.8807 -11.9590 0.0552 -1.5166 -4.1715 0.0000 0.0000 0.0000 16.1298 5.8760 13.5673 -2.4475 -9.7418 28.1446 -0.4969 7.8255 18.4123 -0.4009 -4.0652 11.2601 -0.7678 1.7019 -1.7374 0.7521 2.2932 -0.8829 1.2376 1.1570 0.0083 -2.1559 -0.8784 -14.3238 -0.6983 -0.4789 15.0335 0.0847 -0.3670 6.9626 0.0000 -0.0000 0.0000 -8.4111 -50.2908 -4.2253 12.4318 -20.4491 -2.2509 -0.0000 -0.0000 6.3094 16.7631 15.6916 4.6574 -7.1250 0.0000 -0.0000 -10.2798 46.0727 -0.2750 0.0000 -0.0000 0.0000 46.0601 48.9673 16.3276 -21.9184 32.8847 -6.5415 0.0000 0.0000 3.4095 3.9825 35.5746 2.3193 7.1250 -0.0000 -0.0000 19.8894 3.8392 22.5411
0.00 0.00 0.00 -176.3870 29.0959 -176.9480 0.0000 0.0000 0.0000 -14.1868 -6.5572 -19.5576 2.4415 9.7308 28.1092 -0.2271 13.7389 -16.5829 0.0908 -1.9431 -5.3484 0.0000 0.0000 0.0000 12.2968 10.6620 2.7436 -5.9463 -14.3761 44.7657 -1.3324 9.6841 27.2538 -0.0510 1.4574 -4.0082 -1.2062 1.6291 -1.8508 -0.3559 2.2084 -1.1362 0.3474 1.1169 -0.1580 -2.1491 -0.9849 -15.4017 -1.9871 -0.3556 15.2500 -0.3280 -0.4322 7.2193 0.0000 -0.0000 0.0000 -11.2589 -48.9238 -0.7686 12.4713 -20.5077 -2.2647 -0.0000 -0.0000 7.3080 14.0601 13.8844 3.4392 -7.1250 0.0000 -0.0000 -12.2446 43.9289 0.3289 0.0000 -0.0000 0.0000 42.8932 49.9696 12.3045 -20.0966 30.7585 -5.5807 0.0000 0.0000 3.7244 2.5102 35.0409 1.4419 7.1250 -0.0000 -0.0000 19.1302 3.4230 21.4402
0.00 0.00 0.00 -178.6360 29.0387 -178.7530 0.0000 0.0000 0.0000 -18.5064 -6.1632 -14.4146 2.1124 9.0963 26.0970 0.1933 12.0554 -19.5127 0.0385 1.2672 3.4845 0.0000 0.0000 0.0000 8.4856 11.3059 -5.3726 -8.6166 -16.5546 54.7545 -0.0117 8.7049 12.6246 -0.3413 3.7539 -10.3853 -4.2944 1.3220 -1.2122 -0.9203 1.8371 -0.6293 1.4797 0.9401 -0.0703 -1.3216 -1.0569 -15.4984 -3.4436 -0.4596 13.6058 -0.9386 -0.5577 6.6972 -0.0000 -0.0000 0.0000 -14.0800 -49.1680 0.3259 12.2154 -20.1269 -2.1759 -0.0000 -0.0000 8.2302 13.9921 14.7480 3.6296 -7.1250 0.0000 -0.0000 -12.5418 44.7845 0.0678 -0.0000 -0.0000 0.0000 38.3360 50.7187 7.4419 -19.9330 30.5615 -5.4972 0.0000 0.0000 5.3621 3.6519 35.2324 2.1087 7.1250 -0.0000 -0.0000 19.7205 3.5344 22.2241
0.00 0.00 0.00 -177.6090 22.4600 -177.3900 0.0000 0.0000 0.0000 -21.6139 -5.1492 -7.4740 1.9529 8.7674 25.0702 0.9370 5.0682 -20.7938 0.0004 -0.1297 -0.3564 0.0000 0.0000 0.0000 8.0536 10.2051 -24.1464 -7.4152 -15.6718 50.4278 -0.0644 -0.2097 -4.8746 -0.1231 2.2615 -6.2288 -5.0168 -0.1785 -0.7332 -0.5442 -0.1911 -0.7413 2.2516 -0.0634 -0.3353 0.1707 0.0260 -16.8648 -3.4337 0.8608 17.0374 -1.0622 0.1359 8.0784 -0.0000 0.0000 0.0000 -20.6191 -52.8726 3.1305 11.0448 -18.3569 -1.7900 -0.0000 -0.0000 10.1609 15.2658 14.6582 3.9508 -7.1250 0.0000 -0.0000 -11.3673 44.8433 0.0445 -0.0000 0.0000 0.0000 26.0667 50.8570 -4.2743 -19.8200 30.4249 -5.4399 0.0000 0.0000 1.6624 2.5456 34.3240 1.4360 7.1250 -0.0000 -0.0000 19.1474 2.7413 21.2408
0.00 0.00 0.00 -183.4380 -9.6023 -173.8690 0.0000 0.0000 0.0000 -19.7069 -2.7241 15.2212 0.4628 4.3639 12.1027 -0.0662 -7.1014 -3.2135 1.8317 -8.5064 -24.2632 0.0000 0.0000 0.0000 4.3720 16.1344 -25.2040 -0.8708 -5.9498 16.6389 0.8325 -18.1830 -16.2598 -0.0019 -0.2780 0.7639 -6.9175 -0.3616 -3.1099 -2.1911 -0.3206 -0.0598 1.6001 -0.2608 1.7048 -1.3849 -1.1217 -16.6628 -2.2259 -1.0283 19.4660 -0.6753 -0.9620 8.8421 0.0000 -0.0000 0.0000 -34.5600 -64.5818 25.8852 15.9558 -25.4606 -3.6269 -0.0000 -0.0000 1.0682 14.2746 14.7269 3.7006 -7.1250 0.0000 -0.0000 -12.2813 44.7963 0.0627 0.0000 -0.0000 0.0000 13.2473 50.8558 -25.1580 -14.9404 24.0630 -3.2016 0.0000 0.0000 8.9439 5.6448 41.9627 3.7811 7.1250 -0.0000 -0.0000 20.7590 9.7842 25.5715
